# xmcd
#
# Track frame offsets: 
#        182
#        22267
#        38952
#        55582
#        69925
#        89945
#        100985
#        117072
#        131242
#        146892
#
# Disc length: 2182 seconds
#
# Revision: 6
# Processed by: cddbd v1.5.2PL0 Copyright (c) Steve Scherf et al.
# Submitted via: ExactAudioCopy v1.0b3
#
DISCID=9608840a
DTITLE=Toby Keith - Boomtown
DYEAR=1994
DGENRE=Country
TTITLE0=Who's That Man
TTITLE1=Big Ol' Truck
TTITLE2=Victoria's Secret
TTITLE3=No Honor Among Thieves
TTITLE4=Upstairs Downtown
TTITLE5=You Ain't Much Fun
TTITLE6=In Other Words
TTITLE7=Woman Behind The Man
TTITLE8=Life Was A Play (The World A Stage)
TTITLE9=Boomtown
EXTD=
EXTT0=
EXTT1=
EXTT2=
EXTT3=
EXTT4=
EXTT5=
EXTT6=
EXTT7=
EXTT8=
EXTT9=
PLAYORDER=
